<svg width="31" height="31" viewBox="0 0 31 31" fill="none" xmlns="http://www.w3.org/2000/svg">
<path fill-rule="evenodd" clip-rule="evenodd" d="M15.6504 30.1786C23.9347 30.1786 30.6504 23.4629 30.6504 15.1786C30.6504 6.89432 23.9347 0.17859 15.6504 0.17859C7.36617 0.17859 0.650436 6.89432 0.650436 15.1786C0.650436 23.4629 7.36617 30.1786 15.6504 30.1786ZM18.9745 14.0321V21.6786H21.5234V14.0321H23.413V12.1688H21.5234V11.4042C21.5234 10.5077 22.0009 10.0594 22.956 10.0594C23.2607 10.0594 23.5185 10.0858 23.7294 10.1386L23.7558 8.1698C23.246 8.05261 22.8154 7.99402 22.4638 7.99402C21.3622 7.99402 20.5038 8.28992 19.8886 8.88171C19.2792 9.46765 18.9745 10.2938 18.9745 11.3602V12.1688H17.5595V14.0321H18.9745ZM6.93529 13.3114C6.27318 14.1903 5.94213 15.371 5.94213 16.8534C5.94213 18.4237 6.27904 19.6512 6.95287 20.536C7.63256 21.4149 8.53197 21.8544 9.65111 21.8544C10.6472 21.8544 11.4617 21.4589 12.0945 20.6678L12.2175 21.6786H14.5115V8.17859H11.9626V13.0302C11.3591 12.3387 10.5945 11.993 9.66869 11.993C8.51439 11.993 7.60326 12.4325 6.93529 13.3114ZM8.94799 19.0858C8.63744 18.6112 8.48217 17.9286 8.48217 17.038C8.48217 15.0516 9.09447 14.0585 10.3191 14.0585C11.0984 14.0585 11.6462 14.3895 11.9626 15.0516V18.8046C11.6404 19.4667 11.0867 19.7977 10.3015 19.7977C9.70971 19.7977 9.25853 19.5604 8.94799 19.0858Z" fill="#0D7EAB"/>
</svg>
